<?xml version="1.0" standalone="no"?>
<!DOCTYPE svg PUBLIC "-//W3C//DTD SVG 20010904//EN"
 "http://www.w3.org/TR/2001/REC-SVG-20010904/DTD/svg10.dtd">
<svg version="1.0" xmlns="http://www.w3.org/2000/svg"
 width="512.000000pt" height="512.000000pt" viewBox="0 0 512.000000 512.000000"
 preserveAspectRatio="xMidYMid meet">

<g transform="translate(0.000000,512.000000) scale(0.100000,-0.100000)"
fill="#000000" stroke="none">
<path d="M2494 4411 c-24 -15 -48 -53 -107 -174 -72 -148 -77 -156 -109 -162
-18 -3 -93 -14 -166 -24 -151 -22 -190 -39 -210 -93 -28 -72 -14 -98 125 -233
l126 -122 -26 -155 c-15 -85 -27 -167 -27 -182 0 -37 23 -79 55 -100 52 -34
92 -24 254 60 l152 79 151 -79 c162 -85 201 -94 252 -61 32 22 56 64 56 101 0
15 -12 97 -27 182 l-27 155 121 117 c147 140 163 171 127 246 -23 49 -59 64
-208 85 -72 10 -146 21 -164 24 -32 6 -37 14 -109 162 -82 168 -105 193 -173
193 -19 0 -49 -9 -66 -19z m138 -309 c36 -75 72 -143 81 -151 9 -7 80 -22 159
-33 79 -11 149 -22 157 -24 9 -3 -26 -46 -102 -123 -67 -68 -117 -126 -117
-137 0 -10 11 -82 25 -158 14 -77 25 -144 25 -148 0 -5 -67 27 -150 69 l-149
78 -151 -78 c-82 -43 -150 -74 -150 -69 0 4 11 71 25 148 14 76 25 148 25 158
0 11 -50 69 -117 137 -76 77 -111 120 -102 123 8 2 78 13 157 24 79 11 150 26
158 33 9 7 45 75 81 151 36 76 69 138 73 138 4 0 36 -62 72 -138z"/>
<path d="M1026 2864 c-50 -18 -63 -28 -281 -217 l-180 -157 -216 0 c-205 0
-218 -1 -260 -23 -31 -16 -51 -36 -66 -67 -21 -40 -23 -59 -23 -188 0 -138 1
-144 25 -167 31 -32 74 -33 103 -2 19 20 22 36 24 157 l3 135 235 3 236 2 206
179 c113 99 220 187 236 195 21 11 58 16 116 16 47 0 96 5 109 11 46 21 55 80
19 122 -13 14 -32 17 -131 16 -74 0 -130 -6 -155 -15z"/>
<path d="M1532 2855 c-27 -34 -28 -66 -3 -96 16 -21 30 -24 123 -29 116 -6
138 -15 185 -76 l28 -37 3 -304 c3 -339 9 -315 -70 -291 -52 15 -122 78 -141
126 -8 21 -18 60 -22 87 -11 89 -14 96 -50 111 -44 18 -126 18 -169 0 -29 -12
-37 -23 -50 -68 -45 -157 -176 -247 -383 -263 -99 -8 -128 -20 -143 -55 -9
-23 -9 -34 2 -57 22 -47 54 -55 166 -44 55 6 112 15 126 21 40 15 46 13 46
-19 0 -43 27 -111 61 -154 l30 -37 -25 -33 c-46 -60 -68 -123 -68 -196 0 -76
18 -127 63 -184 l31 -38 -27 -35 c-65 -86 -87 -212 -51 -298 9 -21 16 -41 16
-43 0 -3 -73 -3 -162 -1 -217 4 -216 4 -344 185 -53 76 -101 143 -106 148 -5
6 -101 12 -226 15 l-217 5 -5 310 c-3 171 -7 311 -8 312 -1 1 -14 8 -29 16
-37 18 -68 11 -93 -20 -19 -25 -20 -40 -20 -332 0 -298 1 -308 23 -351 16 -33
34 -51 67 -68 41 -20 57 -22 231 -22 l186 0 77 -109 c86 -123 145 -182 214
-214 46 -22 54 -22 591 -25 615 -3 612 -3 695 69 25 22 59 62 74 87 24 42 27
57 27 142 0 82 -3 101 -24 135 l-23 40 23 14 c51 32 116 109 133 156 20 60 20
157 0 210 -8 22 -17 47 -20 55 -3 10 8 22 31 34 47 26 92 77 121 140 62 133 6
310 -119 376 l-44 24 23 50 c18 39 24 68 24 121 -1 149 -97 268 -242 296 -55
11 -59 14 -77 53 -27 60 -81 118 -142 151 -50 27 -63 30 -175 33 l-121 4 -21
-27z m555 -385 c109 -66 88 -226 -34 -264 l-23 -7 0 145 c0 160 1 161 57 126z
m-522 -470 c35 -48 113 -103 175 -125 127 -44 224 -21 268 65 12 24 22 57 22
72 l0 28 76 0 c49 0 88 -6 110 -16 101 -48 110 -188 15 -251 -34 -23 -35 -23
-415 -23 -364 0 -382 1 -414 20 -33 20 -71 87 -72 124 0 11 9 39 21 63 25 53
75 82 139 82 41 1 48 -3 75 -39z m510 -430 c105 -51 111 -190 12 -250 -30 -19
-52 -20 -340 -20 -335 0 -345 2 -385 57 -56 79 -23 186 68 222 14 6 148 10
314 10 270 1 292 0 331 -19z m-108 -456 c95 -71 95 -177 0 -248 -26 -20 -44
-21 -245 -24 -119 -2 -236 -1 -260 3 -81 12 -142 94 -127 171 8 44 58 101 99
113 17 6 138 9 268 8 223 -2 238 -3 265 -23z"/>
<path d="M3319 2866 c-85 -30 -161 -101 -193 -178 -14 -32 -20 -36 -74 -47
-145 -28 -241 -147 -242 -296 0 -53 6 -82 24 -121 l23 -50 -44 -24 c-125 -66
-181 -243 -119 -376 29 -63 74 -114 121 -140 23 -12 34 -24 31 -34 -3 -8 -12
-33 -20 -55 -20 -53 -20 -150 0 -210 17 -47 82 -124 133 -156 l23 -14 -23 -40
c-21 -34 -24 -53 -24 -135 0 -85 3 -100 27 -142 39 -64 111 -125 171 -143 58
-17 149 -20 177 -5 29 16 42 67 25 100 -17 33 -33 40 -93 40 -95 0 -162 62
-162 150 0 57 30 107 80 132 30 16 66 18 275 18 230 0 242 -1 279 -23 140 -80
75 -276 -92 -277 -43 0 -58 -5 -77 -25 -32 -31 -32 -69 0 -101 l25 -25 353 3
c337 3 354 4 399 25 69 32 128 91 214 214 l77 109 186 0 c174 0 190 2 231 23
33 16 51 34 68 67 l22 44 0 591 0 591 -22 44 c-16 31 -36 51 -67 67 -42 22
-55 23 -260 23 l-216 0 -195 170 c-107 93 -215 180 -240 192 -44 22 -53 23
-405 25 -277 2 -368 -1 -396 -11z m734 -147 c12 -7 67 -51 122 -98 55 -48 149
-130 209 -182 l109 -94 236 -5 236 -5 0 -570 0 -570 -210 -5 c-115 -3 -216 -9
-223 -13 -7 -5 -54 -68 -106 -140 -51 -73 -102 -140 -113 -149 -44 -40 -87
-48 -248 -48 -85 0 -155 2 -155 4 0 2 7 23 15 46 33 94 12 215 -50 288 -34 39
-34 40 -15 57 11 10 33 45 50 78 51 103 37 230 -35 315 -31 35 -33 41 -19 53
29 24 74 114 80 162 4 26 7 47 8 47 0 0 33 -7 71 -15 39 -8 105 -15 148 -15
90 0 117 17 117 74 0 52 -36 76 -114 76 -121 0 -248 45 -326 116 -39 35 -90
123 -90 155 0 9 -9 28 -21 43 -19 25 -25 26 -108 26 -109 0 -126 -13 -134
-106 -6 -72 -28 -123 -71 -166 -36 -36 -100 -67 -138 -68 l-28 0 0 292 c0 275
1 294 21 335 13 28 35 52 62 68 l42 25 328 0 c226 0 335 -4 350 -11z m-953
-374 c0 -162 -2 -165 -68 -125 -52 32 -74 76 -69 139 3 48 8 58 45 93 25 23
51 38 67 38 l25 0 0 -145z m0 -342 c0 -47 29 -97 72 -124 27 -16 46 -19 108
-17 101 4 190 47 257 123 46 53 50 55 99 55 62 0 111 -29 136 -80 35 -69 14
-143 -55 -194 -28 -20 -39 -21 -410 -21 -353 0 -384 1 -412 18 -46 29 -68 65
-72 121 -5 60 18 105 69 136 26 16 51 20 121 20 l87 0 0 -37z m609 -431 c108
-54 105 -209 -4 -262 -38 -19 -61 -20 -331 -20 -260 0 -293 2 -330 19 -107 48
-113 199 -12 261 31 19 51 20 338 20 271 0 309 -2 339 -18z"/>
</g>
</svg>
