<?xml version="1.0" standalone="no"?>
<!DOCTYPE svg PUBLIC "-//W3C//DTD SVG 20010904//EN"
 "http://www.w3.org/TR/2001/REC-SVG-20010904/DTD/svg10.dtd">
<svg version="1.0" xmlns="http://www.w3.org/2000/svg"
 width="512.000000pt" height="512.000000pt" viewBox="0 0 512.000000 512.000000"
 preserveAspectRatio="xMidYMid meet">

<g transform="translate(0.000000,512.000000) scale(0.100000,-0.100000)"
fill="#000000" stroke="none">
<path d="M1690 2570 c0 -6 62 -10 166 -10 107 0 163 3 159 10 -4 6 -70 10
-166 10 -99 0 -159 -4 -159 -10z"/>
<path d="M2395 2570 c4 -6 87 -10 218 -10 141 0 207 4 197 10 -21 13 -423 13
-415 0z"/>
<path d="M3830 2570 c-10 -6 56 -10 197 -10 131 0 214 4 218 10 8 13 -394 13
-415 0z"/>
<path d="M4625 2570 c-4 -7 52 -10 159 -10 104 0 166 4 166 10 0 6 -60 10
-159 10 -96 0 -162 -4 -166 -10z"/>
<path d="M1710 2532 c0 -18 113 -202 175 -285 l67 -90 -246 -246 -245 -245
-74 71 c-82 80 -118 94 -184 72 -29 -9 -155 -129 -579 -553 -493 -492 -545
-547 -573 -606 -84 -178 -51 -378 85 -514 138 -137 335 -170 514 -84 59 28
115 81 606 572 578 577 574 573 559 654 -5 26 -26 55 -78 109 l-71 74 246 246
245 245 64 -50 c466 -364 1089 -471 1663 -285 138 44 352 153 476 241 115 81
323 287 405 400 58 80 165 258 165 274 0 4 -74 8 -165 8 -98 0 -165 -4 -165
-10 0 -5 -33 -53 -74 -108 -184 -244 -444 -432 -730 -527 -180 -60 -248 -70
-476 -70 -178 0 -219 3 -309 23 -281 63 -527 193 -728 385 -86 83 -243 274
-243 297 0 6 -67 10 -165 10 -91 0 -165 -4 -165 -8z m-350 -1177 l105 -105
-460 -461 c-253 -253 -472 -467 -487 -475 -65 -34 -158 -7 -198 58 -22 37 -27
106 -9 141 11 21 929 947 939 947 3 0 52 -47 110 -105z"/>
<path d="M2497 2460 c167 -162 388 -276 612 -316 110 -19 312 -19 422 0 227
40 443 152 614 317 l80 78 -222 1 -222 0 -58 -29 c-142 -72 -263 -96 -447 -88
-148 6 -238 27 -349 83 l-68 34 -222 0 -222 -1 82 -79z"/>
</g>
</svg>
