<?xml version="1.0" standalone="no"?>
<!DOCTYPE svg PUBLIC "-//W3C//DTD SVG 20010904//EN"
 "http://www.w3.org/TR/2001/REC-SVG-20010904/DTD/svg10.dtd">
<svg version="1.0" xmlns="http://www.w3.org/2000/svg"
 width="898.000000pt" height="437.000000pt" viewBox="0 0 898.000000 437.000000"
 preserveAspectRatio="xMidYMid meet">

<g transform="translate(0.000000,437.000000) scale(0.100000,-0.100000)"
fill="#000000" stroke="none">
<path d="M2890 4208 c-9 -42 -35 -290 -31 -293 2 -3 21 -5 41 -5 42 0 40 -3
56 138 5 48 10 62 23 61 9 0 98 -10 199 -23 101 -12 185 -20 187 -17 1 3 5 24
6 46 l4 39 -225 28 c-223 27 -260 30 -260 26z"/>
<path d="M1450 3905 c-179 -47 -327 -133 -456 -267 -129 -133 -215 -293 -250
-466 -22 -105 -15 -349 14 -442 59 -196 156 -348 302 -475 72 -62 195 -135
278 -165 34 -13 62 -24 62 -26 0 -2 -23 -33 -50 -69 -62 -83 -101 -158 -142
-278 -30 -86 -32 -103 -36 -257 -3 -142 -1 -177 17 -254 84 -353 377 -637 733
-710 122 -25 304 -21 424 9 372 93 656 405 715 785 15 100 6 275 -20 375 -47
181 -181 389 -325 504 -82 65 -194 129 -272 157 l-51 17 49 65 c126 166 188
355 188 572 0 212 -49 368 -172 546 -127 185 -328 322 -556 380 -134 34 -317
33 -452 -1z m343 -106 c298 -44 550 -242 655 -517 43 -112 55 -182 55 -317 0
-100 -5 -135 -27 -208 -39 -131 -99 -239 -188 -339 l-33 -36 -155 -5 c-132 -3
-168 -8 -244 -31 -110 -33 -173 -63 -271 -126 -76 -50 -76 -50 -123 -39 -78
19 -213 87 -291 147 -135 103 -234 251 -287 429 -23 75 -27 108 -28 223 0 112
3 148 22 214 23 80 75 193 115 250 181 261 495 400 800 355z m221 -1575 c-64
-30 -195 -64 -243 -63 l-36 1 55 25 c71 32 184 62 235 62 l40 -1 -51 -24z
m340 -5 c229 -68 408 -223 511 -442 58 -121 70 -183 70 -352 0 -129 -3 -160
-23 -225 -138 -439 -568 -682 -1006 -570 -236 60 -438 229 -540 451 -47 102
-65 177 -73 296 -13 222 52 418 199 594 l49 59 133 0 c109 0 152 5 232 25 107
26 276 105 334 155 19 16 37 29 39 30 2 0 36 -10 75 -21z"/>
<path d="M1364 3381 c-30 -13 -64 -59 -64 -88 0 -54 48 -103 100 -103 53 0
100 49 100 104 0 56 -83 109 -136 87z"/>
<path d="M1898 3374 c-86 -46 -50 -184 47 -184 99 0 133 140 45 185 -36 19
-57 18 -92 -1z"/>
<path d="M1157 2832 c-25 -28 -21 -62 20 -143 91 -181 301 -310 506 -309 201
1 411 131 500 309 42 83 46 120 18 145 -33 30 -58 12 -95 -70 -89 -192 -293
-306 -493 -275 -154 24 -284 122 -354 267 -47 96 -69 113 -102 76z"/>
<path d="M1795 1828 c-62 -34 -74 -110 -26 -159 21 -21 39 -29 64 -29 43 0 92
38 100 77 15 78 -72 148 -138 111z"/>
<path d="M2350 1833 c-8 -3 -25 -15 -37 -26 -63 -57 -18 -167 68 -167 49 0 99
47 99 92 0 70 -69 123 -130 101z"/>
<path d="M1589 1279 c-25 -25 -21 -46 23 -139 43 -90 160 -206 251 -249 286
-136 619 -25 757 252 47 93 50 120 15 143 -22 14 -27 15 -47 2 -13 -9 -29 -33
-37 -54 -71 -198 -299 -331 -507 -295 -154 27 -281 123 -348 264 -32 66 -58
97 -80 97 -3 0 -15 -9 -27 -21z"/>
<path d="M6510 3904 c-17 -15 -49 -62 -70 -105 -41 -81 -63 -99 -100 -79 -31
17 -28 82 5 108 25 20 25 21 8 56 -20 44 -33 45 -72 5 -75 -75 -60 -208 29
-254 72 -37 143 -3 189 92 34 69 69 113 91 113 34 0 49 -11 60 -45 16 -48 -8
-101 -54 -120 -20 -8 -34 -21 -32 -28 3 -6 7 -25 11 -41 5 -26 9 -28 38 -22
47 10 95 62 113 124 16 55 13 93 -13 149 -34 73 -142 98 -203 47z"/>
<path d="M3084 3736 c-93 -23 -157 -77 -183 -155 -39 -119 36 -268 153 -301
97 -27 234 13 295 87 63 76 63 192 0 286 -51 78 -157 111 -265 83z m188 -124
c27 -26 32 -40 36 -89 3 -48 0 -63 -18 -86 -60 -76 -212 -96 -276 -36 -33 31
-49 93 -35 139 21 72 95 111 199 107 55 -3 66 -7 94 -35z"/>
<path d="M6153 3362 c-29 -75 -53 -143 -55 -150 -3 -13 426 -186 445 -179 9 3
117 271 117 290 0 8 -70 41 -75 35 -1 -2 -20 -50 -42 -108 -44 -115 -43 -114
-114 -82 l-37 17 38 100 c21 55 37 101 36 102 -1 1 -18 9 -38 17 l-36 15 -38
-99 c-21 -57 -43 -100 -50 -100 -11 0 -89 27 -101 35 -1 0 15 47 37 103 22 57
40 106 40 111 0 9 -45 31 -63 31 -7 0 -35 -62 -64 -138z"/>
<path d="M3383 3174 c-62 -31 -74 -73 -59 -205 9 -83 1 -113 -34 -124 -29 -9
-69 19 -86 62 -16 37 -11 67 14 96 15 16 13 20 -15 49 -36 36 -50 31 -77 -26
-33 -71 -10 -161 57 -225 66 -63 171 -52 218 22 21 33 21 81 3 203 -10 67 42
98 87 53 18 -18 20 -29 16 -64 -6 -40 -5 -42 29 -58 19 -10 37 -17 39 -17 2 0
9 19 16 42 13 52 1 103 -37 148 -50 59 -110 74 -171 44z"/>
<path d="M6015 3010 c-47 -10 -71 -29 -140 -112 l-64 -76 189 -157 190 -156
25 28 c13 15 25 33 25 39 0 6 -34 37 -74 70 -41 32 -75 61 -75 64 0 3 6 14 14
24 14 19 17 19 136 1 l121 -19 29 35 c16 19 29 37 29 40 0 3 -44 11 -97 18
-157 19 -149 16 -145 60 9 89 -73 160 -163 141z m61 -103 c33 -29 29 -60 -17
-112 l-31 -35 -44 36 c-24 20 -44 42 -44 49 0 17 76 85 94 85 8 0 27 -10 42
-23z"/>
<path d="M3858 2628 c-21 -40 -71 -137 -112 -215 l-76 -141 37 -22 c29 -17 38
-18 44 -8 5 7 41 75 81 150 40 75 74 135 76 133 3 -3 -18 -172 -34 -277 -5
-35 -3 -38 34 -57 l39 -20 105 92 c57 51 113 99 123 107 10 8 -16 -51 -58
-131 -42 -81 -77 -152 -77 -158 0 -15 61 -45 70 -34 4 4 43 73 85 153 43 80
93 173 111 207 l35 62 -50 26 c-28 14 -54 25 -58 25 -4 0 -66 -52 -137 -115
-72 -63 -131 -113 -133 -111 -2 2 5 72 17 156 27 208 29 195 -30 225 -27 14
-51 25 -52 25 -2 0 -20 -33 -40 -72z"/>
<path d="M5574 2644 c-55 -20 -120 -77 -145 -127 -58 -113 26 -303 157 -353
138 -53 314 68 314 215 0 92 -72 211 -152 252 -53 27 -123 32 -174 13z m127
-89 c39 -21 83 -83 99 -140 27 -97 -32 -175 -132 -175 -39 0 -54 6 -83 32 -46
40 -85 116 -85 165 0 99 111 164 201 118z"/>
<path d="M5125 2454 c-38 -8 -94 -19 -123 -25 l-53 -11 7 -36 c4 -20 8 -39 10
-41 2 -2 42 4 90 13 47 10 87 16 88 14 8 -10 46 -230 46 -264 0 -46 -12 -61
-56 -70 -32 -6 -84 26 -84 52 0 17 -16 18 -59 3 -37 -13 -38 -23 -7 -70 63
-92 212 -92 273 0 31 46 30 101 -7 290 -17 85 -30 156 -30 158 0 5 -17 2 -95
-13z"/>
<path d="M4480 2438 c-1 -2 -13 -110 -29 -241 -19 -164 -24 -240 -17 -242 17
-5 309 -35 312 -32 1 1 4 20 6 42 l3 40 -115 13 c-63 8 -116 14 -116 15 -3 4
13 107 17 110 2 2 50 -1 107 -7 56 -7 105 -10 107 -7 3 2 5 21 5 41 l0 37 -62
7 c-35 4 -83 9 -107 13 l-44 6 6 54 c3 30 8 57 10 59 2 3 55 -1 116 -9 61 -7
114 -11 116 -8 3 2 5 21 5 41 l0 37 -142 17 c-138 16 -177 19 -178 14z"/>
<path d="M6085 2061 c-41 -10 -66 -25 -95 -56 -20 -22 -25 -37 -25 -82 0 -50
3 -57 35 -87 27 -24 54 -36 118 -51 63 -14 88 -25 103 -43 25 -32 24 -38 -6
-67 -18 -19 -35 -25 -69 -25 -37 0 -48 5 -71 32 l-26 31 -40 -19 -40 -19 23
-35 c34 -50 80 -73 148 -73 132 0 215 104 170 213 -17 40 -60 64 -150 85 -41
9 -83 24 -92 32 -56 51 36 112 101 67 21 -15 24 -15 52 12 23 22 26 30 17 41
-29 35 -103 56 -153 44z"/>
<path d="M5618 1918 c-82 -34 -148 -67 -148 -73 0 -6 36 -99 81 -206 44 -107
85 -204 90 -217 8 -22 10 -22 46 -7 20 9 39 17 41 19 1 2 -13 43 -32 92 -20
48 -36 90 -36 93 0 3 45 24 100 46 55 22 100 45 100 52 0 19 -22 63 -32 63 -6
0 -53 -18 -105 -40 -53 -22 -97 -39 -98 -38 -10 12 -44 102 -41 107 3 4 54 27
115 51 61 25 111 50 111 57 0 21 -23 63 -34 63 -6 -1 -77 -28 -158 -62z"/>
<path d="M5250 1729 c-19 -12 -36 -23 -38 -24 -3 -2 241 -399 254 -414 4 -4
74 39 74 46 0 5 -238 392 -249 405 -4 4 -22 -2 -41 -13z"/>
<path d="M6480 1523 c-96 -10 -267 -49 -374 -84 -490 -164 -884 -541 -1079
-1034 -37 -94 -80 -249 -95 -348 l-9 -58 55 3 55 3 22 110 c43 206 123 397
247 582 102 153 296 346 443 443 196 128 378 205 600 252 96 20 138 23 325 23
252 0 365 -19 565 -92 395 -145 721 -438 909 -818 71 -142 115 -271 142 -413
l18 -92 53 0 c62 0 60 -7 33 126 -31 152 -74 276 -150 429 -92 185 -178 304
-330 455 -289 288 -623 454 -1013 505 -106 13 -325 18 -417 8z"/>
<path d="M4965 1507 c-27 -7 -58 -28 -96 -66 -46 -46 -58 -66 -67 -107 -20
-90 10 -166 94 -244 57 -52 99 -70 166 -70 97 0 187 66 209 155 13 50 15 52
39 30 15 -13 19 -12 40 10 l23 24 -28 33 c-39 47 -146 158 -152 158 -11 0
-133 -124 -133 -135 0 -7 9 -20 20 -30 20 -18 21 -18 59 19 42 41 53 37 65
-20 14 -64 -47 -146 -119 -160 -70 -13 -171 63 -197 149 -16 52 2 106 49 147
35 31 40 32 99 27 l63 -5 14 37 15 36 -36 12 c-45 14 -75 14 -127 0z"/>
</g>
</svg>
